<svg width="160" height="100" viewBox="0 0 160 100" fill="none" xmlns="http://www.w3.org/2000/svg">
<path d="M72.5307 52.0064L77.5629 46.9741L65.0802 34.5092C63.7481 35.8451 63 37.6548 63 39.5414C63 41.428 63.7481 43.2376 65.0802 44.5736L72.5307 52.0064ZM84.5867 48.7879C87.3073 50.0504 91.1304 49.1613 93.9577 46.334C97.354 42.9377 98.0119 38.0655 95.398 35.4516C92.8019 32.8555 87.9297 33.4956 84.5156 36.8919C81.6883 39.7192 80.7992 43.5423 82.0617 46.2629L64.7068 63.6178L67.214 66.1251L79.4656 53.909L91.6994 66.1428L94.2066 63.6356L81.9728 51.4018L84.5867 48.7879Z" fill="#EBC060"/>
</svg>
